# xmcd
#
# Track frame offsets:
#	150
#	24090
#	43923
#	57471
#	74560
#	95939
#	110605
#	125577
#	138817
#	154031
#	170868
#	190787
#	206128
#	219528
#	236357
#	252607
#	269552
#	287652
#	304284
#
# Disc length: 4319 seconds
#
# Revision: 2
# Processed by: cddbd v1.5.1PL2 Copyright (c) Steve Scherf et al.
# Submitted via: audiograbber 1.83.01
#
DISCID=3110dd13
DTITLE=Top Tunes Country Vol 20 - Tt106
DYEAR=2002
DGENRE=Karaoke
TTITLE0=Emmylou Harris - Bang The Drum Slowly
TTITLE1=Richard Marx And Chely Wright - Edge Of Forever
TTITLE2=Jamie O'neal - Frantic
TTITLE3=Carolyn Dawn Johnson - I Don't Want You To Go
TTITLE4=Sara Evans - I Keep Looking
TTITLE5=Wilkinsons - I Wanna Be That Girl
TTITLE6=Alison Krause And Union Station - Let Me Touch You For A While
TTITLE7=Kasey Chambers - Little Bit Lonesome
TTITLE8=Lee Ann Womack - Man With 18 Wheels
TTITLE9=Mindy Mccready - Maybe Maybe Not
TTITLE10=Willie Nelson And Lee Ann Womack - Mendocino County Line
TTITLE11=Kasey Chambers - Not Pretty Enough
TTITLE12=Kasey Chambers - On A Bad Day
TTITLE13=Jamie O'neill - Sanctuary
TTITLE14=Dolly Parton - Seven Bridges Road
TTITLE15=Shania Twain - Heart Is Blind
TTITLE16=Kellie Coffey - When You Lie Next To Me
TTITLE17=Sara Evans - Why Should I Care
TTITLE18=Richard Marx And Chely Wright - Edge Of Forever (Vocal)
EXTD=
EXTT0=
EXTT1=
EXTT2=
EXTT3=
EXTT4=
EXTT5=
EXTT6=
EXTT7=
EXTT8=
EXTT9=
EXTT10=
EXTT11=
EXTT12=
EXTT13=
EXTT14=
EXTT15=
EXTT16=
EXTT17=
EXTT18=
PLAYORDER=
